<?xml version="1.0" encoding="utf-8"?>
<!-- Generator: Adobe Illustrator 22.0.0, SVG Export Plug-In . SVG Version: 6.00 Build 0)  -->
<svg version="1.1" id="レイヤー_1" xmlns="http://www.w3.org/2000/svg" xmlns:xlink="http://www.w3.org/1999/xlink" x="0px"
	 y="0px" viewBox="0 0 275.2 167.8" style="enable-background:new 0 0 275.2 167.8;" xml:space="preserve">
<style type="text/css">
	.st0{fill:#545556;}
	.st1{fill:none;}
</style>
<title>logo</title>
<g id="レイヤー_2_1_">
	<path class="st0" d="M43.4,140c-1.3,0.5-2.7-0.2-3.2-1.4c-0.4-1-0.1-2.1,0.8-2.8c8.6-6.4,20-13.1,31.5-14.4
		c28.8-3.1,42.8,3.5,68.3,2.5c16.5-0.7,35.7-6.1,49.7-11c1.3-0.5,2.7,0.2,3.1,1.5c0.4,1.1,0,2.4-1.1,3
		c-13.6,8.3-32.9,18.2-49.8,19.6c-32.4,2.6-45.5-9.2-71.2-4.9C61.9,133.6,52.5,136.3,43.4,140z"/>
	<path class="st0" d="M68.6,110.4c-1.3,0.5-2.7-0.1-3.2-1.4c-0.4-1.1,0-2.3,1-3c7.1-4.6,14.8-8.2,22.9-10.6
		c27.4-7.7,51.6-3.5,71.7-6.5c18.6-2.8,37.9-10.2,51.9-16.4c1.2-0.5,2.7,0,3.2,1.3c0.4,1,0.1,2.3-0.8,2.9
		c-14.4,10.4-35.7,23-56.2,25.6c-29.5,3.7-41.2,0.3-68,2.4C83.3,105.5,75.8,107.4,68.6,110.4z"/>
	<path class="st0" d="M83.9,87c-1.2,0.6-2.7,0.1-3.3-1.1c-0.5-1.1-0.2-2.4,0.7-3.1c10-7.4,22.9-15.3,37.2-19.7
		c20.4-6.2,29.5-3.4,56.1-11.5c21.8-6.7,68.2-33.8,96.8-51.2c1.1-0.8,2.6-0.5,3.4,0.6s0.5,2.6-0.6,3.4
		C248.8,26.1,205.4,59.8,173.4,68c-28.1,7.2-32,4.7-57,8.2C104.8,77.8,93.3,82.3,83.9,87z"/>
	<rect class="st1" width="275.2" height="167.8"/>
</g>
</svg>
