<?xml version="1.0" encoding="utf-8"?>
<!-- Generator: Adobe Illustrator 21.0.0, SVG Export Plug-In . SVG Version: 6.00 Build 0)  -->
<svg version="1.1" id="レイヤー_1" xmlns="http://www.w3.org/2000/svg" xmlns:xlink="http://www.w3.org/1999/xlink" x="0px"
	 y="0px" viewBox="0 0 10 10" style="enable-background:new 0 0 10 10;" xml:space="preserve">
<style type="text/css">
	.st0{fill:#FFE3D7;}
	.st1{fill:#9C1A24;}
	.st2{fill:#09104A;}
	.st3{fill:#FCF0E0;}
	.st4{fill:#1D2029;}
</style>
<g>
	<g id="XMLID_1_">
		<g>
			<rect x="7" y="6" class="st0" width="1" height="1"/>
			<polygon class="st1" points="5,6 4,6 4,7 5,7 6,7 6,6 			"/>
			<polygon class="st2" points="6,8 5,8 4,8 3,8 3,9 4,9 4,10 5,10 6,10 6,9 7,9 7,8 			"/>
			<g>
				<polygon points="6,4 6,5 6,6 7,6 7,5 7,4 				"/>
				<polygon points="3,5 3,6 4,6 4,5 4,4 3,4 				"/>
			</g>
			<rect x="2" y="6" class="st0" width="1" height="1"/>
			<g>
				<polygon class="st3" points="8,5 8,4 8,3 7,3 7,2 6,2 6,3 5,3 4,3 3,3 3,4 4,4 4,5 4,6 5,6 6,6 6,5 6,4 7,4 7,5 7,6 8,6 9,6 
					9,5 				"/>
				<rect x="7" y="9" class="st3" width="1" height="1"/>
				<rect x="6" y="6" class="st3" width="1" height="1"/>
				<polygon class="st3" points="4,7 4,8 5,8 6,8 6,7 5,7 				"/>
				<rect x="3" y="6" class="st3" width="1" height="1"/>
				<rect x="2" y="9" class="st3" width="1" height="1"/>
				<polygon class="st3" points="3,4 2,4 2,5 2,6 3,6 3,5 				"/>
			</g>
			<polygon class="st4" points="8,2 8,1 7,1 6,1 6,0 5,0 4,0 4,1 3,1 2,1 2,2 1,2 1,3 1,4 0,4 0,5 1,5 1,6 2,6 2,5 2,4 3,4 3,3 4,3 
				5,3 6,3 6,2 7,2 7,3 8,3 8,4 8,5 9,5 9,4 9,3 9,2 			"/>
		</g>
	</g>
</g>
</svg>
