<?xml version="1.0" encoding="utf-8"?>
<!-- Generator: Adobe Illustrator 21.0.0, SVG Export Plug-In . SVG Version: 6.00 Build 0)  -->
<svg version="1.1" id="レイヤー_1" xmlns="http://www.w3.org/2000/svg" xmlns:xlink="http://www.w3.org/1999/xlink" x="0px"
	 y="0px" viewBox="0 0 88 62" style="enable-background:new 0 0 88 62;" xml:space="preserve">
<g>
	<path d="M71.2789307,8C73.3307343,8,75,9.6692657,75,11.7210674v38.5578613C75,52.3307343,73.3307343,54,71.2789307,54H16.7210674
		C14.6692657,54,13,52.3307343,13,50.2789307V11.7210674C13,9.6692657,14.6692657,8,16.7210674,8H28h26.9942017h4.8026657
		H71.2789307 M71.2789307,5H59.7968674h-4.8026657H28h0.1119995H16.7210674C13.0244827,5,10,8.0244827,10,11.7210674v38.5578613
		C10,53.9755173,13.0244827,57,16.7210674,57h54.5578613C74.9755173,57,78,53.9755173,78,50.2789307V11.7210674
		C78,8.0244827,74.9755173,5,71.2789307,5L71.2789307,5z"/>
</g>
<g>
	<path d="M22.8934326,19.5h-4.0368652c-0.7804871,0-1.4190674-0.6385803-1.4190674-1.4190674v-2.6618652
		C17.4375,14.6385803,18.0760803,14,18.8565674,14h4.0368652c0.7804871,0,1.4190674,0.6385803,1.4190674,1.4190674v2.6618652
		C24.3125,18.8614197,23.6739197,19.5,22.8934326,19.5z"/>
</g>
<g>
	<path d="M22.8934326,33.75h-4.0368652c-0.7804871,0-1.4190674-0.6385803-1.4190674-1.4190674v-2.6618652
		c0-0.7804871,0.6385803-1.4190674,1.4190674-1.4190674h4.0368652c0.7804871,0,1.4190674,0.6385803,1.4190674,1.4190674v2.6618652
		C24.3125,33.1114197,23.6739197,33.75,22.8934326,33.75z"/>
</g>
<g>
	<path d="M22.8934326,48h-4.0368652C18.0760803,48,17.4375,47.3614197,17.4375,46.5809326v-2.6618652
		C17.4375,43.1385803,18.0760803,42.5,18.8565674,42.5h4.0368652c0.7804871,0,1.4190674,0.6385803,1.4190674,1.4190674v2.6618652
		C24.3125,47.3614197,23.6739197,48,22.8934326,48z"/>
</g>
<g>
	<path d="M69.1434326,19.5h-4.0368652c-0.7804871,0-1.4190674-0.6385803-1.4190674-1.4190674v-2.6618652
		C63.6875,14.6385803,64.3260803,14,65.1065674,14h4.0368652c0.7804871,0,1.4190674,0.6385803,1.4190674,1.4190674v2.6618652
		C70.5625,18.8614197,69.9239197,19.5,69.1434326,19.5z"/>
</g>
<g>
	<path d="M69.1434326,33.75h-4.0368652c-0.7804871,0-1.4190674-0.6385803-1.4190674-1.4190674v-2.6618652
		c0-0.7804871,0.6385803-1.4190674,1.4190674-1.4190674h4.0368652c0.7804871,0,1.4190674,0.6385803,1.4190674,1.4190674v2.6618652
		C70.5625,33.1114197,69.9239197,33.75,69.1434326,33.75z"/>
</g>
<g>
	<path d="M69.1434326,48h-4.0368652C64.3260803,48,63.6875,47.3614197,63.6875,46.5809326v-2.6618652
		C63.6875,43.1385803,64.3260803,42.5,65.1065674,42.5h4.0368652c0.7804871,0,1.4190674,0.6385803,1.4190674,1.4190674v2.6618652
		C70.5625,47.3614197,69.9239197,48,69.1434326,48z"/>
</g>
<path d="M34,39.516449V23.4835491c0-1.8438473,1.9404068-3.0430851,3.5895958-2.2184906l16.0329018,8.016449
	c1.8281364,0.9140701,1.8281364,3.5229168,0,4.4369831l-16.0329018,8.0164528C35.9404068,42.559536,34,41.3602982,34,39.516449z"/>
</svg>
