<?xml version="1.0" encoding="utf-8"?>
<!-- Generator: Adobe Illustrator 21.0.0, SVG Export Plug-In . SVG Version: 6.00 Build 0)  -->
<svg version="1.1" id="レイヤー_1" xmlns="http://www.w3.org/2000/svg" xmlns:xlink="http://www.w3.org/1999/xlink" x="0px"
	 y="0px" viewBox="0 0 100 100" style="enable-background:new 0 0 100 100;" xml:space="preserve">
<style type="text/css">
	.st0{fill:#FFFFFF;stroke:#000000;stroke-width:2.4880667;stroke-miterlimit:10;}
	.st1{fill:#FFFFFF;stroke:#000000;stroke-width:2.736336;stroke-miterlimit:10;}
</style>
<g>
	<polyline class="st0" points="48,35 24,11 11,24 35,48 	"/>
	<polyline class="st0" points="52,65 76,89 89,76 65,52 	"/>
</g>
<path class="st0" d="M33.6898613,20.6898594c-5.0000019,5-5.0000019,5-5.0000019,5"/>
<path class="st0" d="M42.1898613,29.1898594c-5,5.0000019-5,5.0000019-5,5.0000019"/>
<path class="st0" d="M59.1898613,46.1898613c-5,5-5,5-5,5"/>
<path class="st0" d="M67.6898575,54.6898613c-4.9999962,5-4.9999962,5-4.9999962,5"/>
<path class="st0" d="M76.1898575,63.1898613c-5,4.9999962-5,4.9999962-5,4.9999962"/>
<path class="st1" d="M17.5000057,82.5000076l-0.0000114-0.0000153v-9.8994827l55.1005173-55.1005173
	c2.7223587-2.7223577,7.177124-2.7223577,9.8994827,0l0.0000153,0.0000114c2.7223587,2.7223568,2.7223587,7.1771259,0,9.8994846
	L27.3994904,82.5000076H17.5000057z"/>
<line class="st1" x1="72.5" y1="17.5" x2="82.5" y2="27.5"/>
<line class="st0" x1="19.9312191" y1="70.1692886" x2="29.8307152" y2="80.068779"/>
<line class="st0" x1="17.4999943" y1="78.0148392" x2="22.2425785" y2="82.7574234"/>
</svg>
